/* XPM */
static char *result[] = {
/* columns rows colors chars-per-pixel */
"64 64 45 1 ",
"  c black",
". c #140006",
"X c #1B1B1B",
"o c #2C181D",
"O c #3A1520",
"+ c #63001F",
"@ c #6A0021",
"# c #6C0022",
"$ c #6D0A29",
"% c #730829",
"& c #7C1938",
"* c #6F3E3A",
"= c #753338",
"- c #743638",
"; c #513D43",
": c #464646",
"> c #86002A",
", c #89032D",
"< c #99002F",
"1 c #990030",
"2 c #801436",
"3 c #A00F30",
"4 c #A3103D",
"5 c #AD2B31",
"6 c #A61440",
"7 c #A61F4A",
"8 c #AF234B",
"9 c #B22850",
"0 c #B62F55",
"q c #B83157",
"w c #BD395D",
"e c #B64A6C",
"r c #B84E6F",
"t c #B94E70",
"y c #BD5A79",
"u c #3E8644",
"i c #319A48",
"p c #22B14C",
"a c #2F3699",
"s c #E67A91",
"d c #B9B9B9",
"f c #F28DA0",
"g c #FFA3B1",
"h c #F2DEE4",
"j c white",
/* pixels */
"::::::::::::::::::::::::::::::::::::::::::::::::::::::::::::::::",
"::::::::::::::::::::::::::::::::::::::::::::::::::::::::::::::::",
"::::::::::::::::::::::::::::::::::::::::::::::::::::::::::::::::",
":::::::::::::::::::::::::::::::::::::::::::::::::::::::::::XXXXX",
":::::::::::::X::::::::XX::::::::::::::::::::::::::::XXXXXXX:::::",
"::::::::::::X:::::::::X::::::::::;::::::::::::::::X:::::::::::::",
":::::::::::X::::::::::X::::::::;::::::::::::::::XXX:::::::::::::",
":::::::::::XXXXXX::::::XX::XXX;;:&::;::::::::::X::::::::::::::::",
":::::::::::::::::XX::::XXXXXXoX$XXXXXXXXX:::::X:::::::::::::::::",
":::::X:::::::::::::XXXXoXXXOXX$Xo1X$XoXXXXX::X::::::::::::::::::",
":::::X:::::::::::::XXoXXXoooX$oX111 $XXXXXX:X:::::::::::::::::::",
"::::::X::::::::::XXXooX$ooo,XoO1111<$XXXXXXXX:::::X:::::XXXXXX::",
":::::::X:::::::::XXXX$XXX$$XX1%$111 XXXXXXXXX::::XX::::XXXXXXX::",
":::::::X::::::::XXXX$XX1$$X1111o11w.oXXXXXXXX:::XX::::XXXXXXXX::",
":::::::XX:::::::XXXXXX111X11111111X+XXXXXXXXXX:X::::XXXXXXXXXXX:",
":::X::::::::::::XXXXX11111<11111111>3555XXXXXX:X:::XXXXXXXXXXXX:",
":::X::::::::::::XXXXoX11<3111<X111g 5555XXXXXX:X:::XXXXXXXXXXXX:",
":::XX:::::::::::XXX$XX51gfg1,8Xg1Xf 5555XXXXXX:X:::XXXXXXX:XXXX:",
"::::XXX:::::X:::XXXXX$3#gww9gfw64gg 5555XXXXXX:X:::XXXXX:::XXXX:",
":::::::X:::::X::XXXXXXX. wqsg6wgs +$XXXXXXXXXX::X::XXXX::::XXXX:",
":::::::::::::XXXXXXXXXXX   +      XXXXXXXXXXXXX:X::XXXX::::XXXX:",
":::::::::::::::::XXXXXXXXX$ g1gw oXXXXXXXXXXXXX:X::XXXX::::XXXX:",
":::::::::::::::::XXXXXXXXXX 111g+XXXXXXXXXdXXXXXX::XXXXX:::XXXX:",
"X:::::XXXXXXXXX:::XXXXXXXXX11111+XXXXXXXXddXXXXX:X:XXXXX:::XXXX:",
"::::XXXXXXXXXXXXXX:X   .  . 111       XXXdXXXXXX:X:XXXXXX:::::::",
":::XXXXXXXXXXXXXXXXX hjjjyjjj1 hjjjjj XXdXXXXXXX:X::XXXXX:::::::",
":::XXXXXXXXXXXXXXXXX.hjyjjhyye jjjjjj XXdXXXXXX::X::XXXXX:::::::",
":::XXXXXX::XXXXXXXX jyjjjjjjjh yyjjjjj dXXXXXXX:X:::XXXXX:::::::",
"XX:XXXXX::X::XXXXXX yjj1jyjhjj jjjjjjj XXXXXXXXXX:::XXXXX:::::::",
"::XXXXXXXXX::X:XXXX jj111jyjjj jjjjjjj XXXXXXX:::::XXXXXX:::::::",
"::XXXXX:::::XX::XXX j11111rjj  jjjjjjj  XXXXXXXXXXXXXXXXX:::::::",
"::XXXXXXXX::X:::XXXX.j11<jjjjj jjj jjjj XXXXXXXXXXXXXXXXX:::::::",
"::XXXXXXXXXX:::X:::X: j Xh+jhh jjj jjjj XXXXXXXXXXXXXXXX:X::::::",
"::XXXXXXXXXXX::X::::: j XXXjj  jjj jjjj XXXXXXXXXXXXXXX:::X:::::",
":::XXXXXXXXXX::X::::: jj XXj7j.hjj jjjjj :::XXXXXXXX::::::X:::::",
"::::::XXXXXXX:X:::::: 1jj X1jy jjj jjjjj ::::::::::::::::::X::::",
"::::::::XXXXX:X::::: 1j 1 X11++jhj jjjjj  :::::::::::::::::XX:::",
"::::::::XXXXX:X:::::   X XX111 yjjj jjjjj ::::::::::XX:::::X:X::",
"::::::::XXXXXXX:::::::XXXXX1111yjjj    jj X:::::::::::X:::::XX::",
":::::::XXXXXXX:::::XXXXXXXX111 jjjj  X    X::::::::::::XX:::XXX:",
"::::::XXXXXXX:::::XXXXXXXXXj<y.jjjjj X g   ::::::::XX::::XXX::X:",
":::::::XXXXXXXXXXXXXXXXXX ryej jjjjj : g XXX:::::::X:::XXXXXXXX:",
":::::::XXXXX:::XXXXXXXXXX.hjtj+@jjjj : g  XXX:::::X::XXXXXXX::X:",
":::::XX:::::::XXXXXXXXX:: yjjjj jjjj : gg XXXX::::X::XXXXXXX::X:",
"::::::::::::::XXXXXXX::::+jj1jy .    :    XXXX::::X:XXXXXXXX::X:",
":::::::::::::XXXXXXXX:;::  111 +  pp     XXXXXX::::XXXXXXX:::X::",
"::::::::::::XXXXXXX:::::  11111*p pppppp     XX:::::XXXXX::::X::",
"::::::::::::XXXXXX::::+  up111ppp pppppppppp  X:::::XXXXX::::X::",
":::::::XX:::XXXXX::X$  p*ppp1pip   pppp     p X:::::XXXX::::::::",
":::::XX:::::XXXXXXX$ p1p*p-*=pp:::   pppppp   X:::::XXXX::::::::",
":::XX:::::::XXXXXX   111p*ppi +::::       p XXX::::XXXXX::::::::",
"::X:::::::::XXXXXXXX11111+    X::::::::      XXXoXXXXXXX::X:::::",
":X::::::::::XXXXXXX. 111 gg  XX::::::::::: j  oXXXXXXXXX::X:::::",
":X:::::::::::XXXXX$ gg1gfg  XXX::::::::::: jj.oX$XXoXXXX:::X::::",
"::::::::::::::::::  ww0ggg XXXX::::::::::: jjj+XXXXXXXX:::::XX::",
":::::::::::::::::: gggfgww :::::::::::::: 1j 11 1X$X;:::::::::X:",
"::::::::::::::::::  gggggg     ::::::::::   :  111:&::::::::::::",
":::::::::::::::::::  ggggggggggggggg aa ::::::11111&::::::::::::",
":::::::::::::::::::        ggggggggg aa  ::::;:111::::::::::::::",
"::::::::::::::::::: aaaaa            aaa :::&:::1:;:::::::::::::",
":::::::::::::::::::       ::::::::::  aa :::::&&2:::::::::::::::",
":::::::::::::::::::: ::::::::::::::::    :::::::;:&&::::::::::::",
"::::::::::::::::::::::::::::::::::::::::::::::::::::::::::::::::",
"::::::::::::::::::::::::::::::::::::::::::::::::::::::::::::::::"
};
