/* XPM */
static char *result[] = {
/* columns rows colors chars-per-pixel */
"64 64 8 1 ",
"  c black",
". c #464646",
"X c #22B14C",
"o c #FFF200",
"O c #2F3699",
"+ c #FFA3B1",
"@ c #99D9EA",
"# c white",
/* pixels */
"................................................................",
"................................................................",
"................................................................",
"................................................................",
"................................................................",
"........................o...o...................................",
"........................o...o..oo...............................",
"........................oo..o..o................................",
".......................           ..............................",
"....................... +++++++++  .............................",
"....................... ++++++++++  ............................",
"....................... +  +++   ++ ............................",
"....................... +@+@++@+@++ ............................",
"....................... +@++++++@@+ ............................",
"....................... ++++   ++@+ ............................",
"....................... +++++++++@+ ............................",
"....................... ++++++++@++ ............................",
"....................... ++++++++@++ ............................",
"....................... +++++++++++ ............................",
".......................  ++++++++  .............................",
"........................          ..............................",
"........................... ++++ ...............................",
"........................... ++++ ...............................",
"........................... ++++ ...............................",
"....................                  ..........................",
".................... ######### ###### ..........................",
".................... ######### ###### ..........................",
"................... ########## ####### .........................",
"................... ########## ####### .........................",
"................... ########## ####### .........................",
"................... #########  #######  ........................",
".................... ######### ### #### ........................",
".................... ##### ### ### #### ........................",
"...................  ##### ##  ### #### ........................",
"................... ###### ### ### ##### .......................",
"................... #####  ### ### ##### .......................",
"................... #####  ##  ### #####  ......................",
"..................  #####  ### #### ##### ......................",
".................. ###### #### ####    ## ......................",
".................  ###    ###  ####  .    ......................",
".................     ... #### ##### . +   .....................",
"................... +  .. #### ##### . + .......................",
"................... +  .. ####  #### . +  ......................",
"................... + ... ##### #### . ++ ......................",
"................... + ... #####      .    ......................",
"...................   ...         XX     .......................",
"........................  XXXXXXX XXXXXX    ....................",
"......................   XXXXXXXX XXXXXXXXXX....................",
".....................  XXXXXXXXX   XXXX     ....................",
".................... XXXXXXXXXX    XX   +++  ...................",
"..................    XXXXXXX   . .   ++++++  ..................",
"....................          ....... +++++++ ..................",
"...................  +++ ++  .......  +++++++ ..................",
"................... ++++++  .......  ++++++++ ..................",
"..................  ++++++ .......  ++++++    ..................",
".................. +++++++ ....    ++++    .....................",
"..................  ++++++              ........................",
"...................  +++++++++++++++ OO ........................",
"...................        +++++++++ OO  .......................",
"................... OOOOO            OOO .......................",
"...................       ..........  OO .......................",
".................... ................    .......................",
"................................................................",
"................................................................"
};
