/* XPM */
static char *result[] = {
/* columns rows colors chars-per-pixel */
"64 64 49 1 ",
"  c black",
". c #2C262C",
"X c #2C272C",
"o c #2E272E",
"O c #2C282C",
"+ c #2C292C",
"@ c #2D282D",
"# c #2D292D",
"$ c #2C2A2C",
"% c #2C2B2C",
"& c #2D2A2D",
"* c #2D2B2D",
"= c #2E292E",
"- c #2E2B2E",
"; c #2F2B2F",
": c #2C2C2C",
"> c #2D2C2D",
", c #2D2D2D",
"< c #2E2C2E",
"1 c #2E2D2E",
"2 c #2F2D2F",
"3 c gray18",
"4 c #2F2E2F",
"5 c #2F2F2F",
"6 c #302F30",
"7 c #312E31",
"8 c gray19",
"9 c #323132",
"0 c gray20",
"q c #353335",
"w c #363236",
"e c #353535",
"r c gray21",
"t c #383338",
"y c #393539",
"u c #3A353A",
"i c #3B373B",
"p c #3C383C",
"a c #3D3B3D",
"s c #3D3C3D",
"d c #3E3C3E",
"f c #3F3D3F",
"g c #403E40",
"h c #434243",
"j c #444444",
"k c gray27",
"l c #464646",
"z c #ED1C24",
"x c white",
/* pixels */
"llllllllllllllllllllllllllllllllllllllggglllllllllllllllllllllll",
"lllllllllllllllllllllllllllllllllllgppplggllllllllllllllllllllll",
"lllllllllllllllllllllllllllllllhgapttp%18ppgllllllllllllllllllll",
"lllllllllllllllllllllllllllghaahptp%:$@t*3lpglllllllllllllllllll",
"lllllllllllllgggghhggggggpapgaa9%,>:>3$O-$,gtpllllllllllllllllll",
"lllllllllllggpghhgggggggpua>q,,q,>8:1:::$-&$gpglllllllllllllllll",
"llllllllllgtp$>1*;;$**$$$%,,330::11111::1$=O:3pgglllllllllllllll",
"llllllllllg38>8r08888888:,8   11111---11:1$$$:ggglllllllllllllll",
"llllllllll3:8:>>:::::::                  ::$=1$8gpllllllllllllll",
"llllllllll6411111111                       -O1$:8pllllllllllllll",
"llllllllll311111111                        $O1:-$pplllllllllllll",
"llllllllll7---<<-                           $-$-$1plllll      ll",
"lllllllkl5%::>>::                           $==OO:%gggl       ll",
"lllllkjkk3$:::::                             ::$O:3ggg        ll",
"llllkkjjt,<::#-$                              :$$-$3           l",
"lllkkjfiy,$::#1:      zzzz          zzzz      1:$==            l",
"llkkkgwd::>>>&1:      zzzz          zzzz      1:1$O            l",
"llkkjs3:33-::&1>      zzzz          zzzz      --:$O       l    l",
"llkkk3:f1:-::#1:      zzzz          zzzz      :-1O+     gll    l",
"llkkk331-::::#1:                              :$+O:    :gll    l",
"lllkk51:>::::+*3                               u*%>    :gll    l",
"lljll>:11::::$+3:                              >$:1    $lll    l",
"lkkk5311::*O%&$,,                         x     8,1     lll    l",
"lkkk5f         ,>f                       xx     $11     lll    l",
"lllk             5f   xx                 x      ---      lllllll",
"lll                    x                x       :1O-     lllllll",
"lll                     x               x      -$:-O     lllllll",
"lll      $:              x             x       $=:$%     lllllll",
"lll     jj$$:            xxx         xx       :-O-$>     lllllll",
"ll     lklke%+%            xxx      xx        1OO-:      lllllll",
"ll     lllll8,$%             xxxxxxx                     lllllll",
"ll        ll81:%#                                       llllllll",
"ll          8g::#1: >                                   llllllll",
"ll           p::#1:::                                  lllllllll",
"lll          g::#1::::                   %*$        $1llllllllll",
"llllll       8::#1::1:>>                 >:>::$O-:$-O8llllllllll",
"llllllll     8::#1::111         >>       >:>::$O=$:$X%llllllllll",
"llllllll     l::$*::-<1         11        ---$$+.o$$:%glllllllll",
"llllllll     g11:$%::1       -<<=o--       ==+$$OO1::1plllllllll",
"lllllll      8gh<-&        +++X.OO%:%      $$+++$$%$$$pgllllllll",
"lllllll      8,::*         $$OO$:::$$      :::::::111:8gllllllll",
"lllllll     lll8>          $$$$$$$-1>:      %$$$$&$%$$$     llll",
"lllllll     lll           :::::>11::-&:      :::::>::       llll",
"llllllllllllll         %$$$$$$$$$$-$:>:       ::::>::       llll",
"llllllllllllll       1>::::::::::::::11       111111        llll",
"lllllllllllll        1>::::::::::::1<-<<       --<--      llllll",
"llllllllllll       111111111111111#+>>%>%      %%%%2     lllllll",
"llllllllllll      811<----------+-hgq1,61,     >,,,,     lllllll",
"llllllllllll     r,          %%4gg8:8lllll     lllll    llllllll",
"llllllllllll                  ,,::8llllllll    lllll    llllllll",
"llllllllllll                   llllllllllll    llll     llllllll",
"llllllllllll                   llllllllllll             llllllll",
"llllllllllll           ll      llllllllllll             llllllll",
"lllllllllllll       llllll     llllllllllll             llllllll",
"lllllllllllllllllllllllllll    lllllllllllll           lllllllll",
"lllllllllllllllllllllllllllllllllllllllllllll       llllllllllll",
"llllllllllllllllllllllllllllllllllllllllllllllllllllllllllllllll",
"llllllllllllllllllllllllllllllllllllllllllllllllllllllllllllllll",
"llllllllllllllllllllllllllllllllllllllllllllllllllllllllllllllll",
"llllllllllllllllllllllllllllllllllllllllllllllllllllllllllllllll",
"llllllllllllllllllllllllllllllllllllllllllllllllllllllllllllllll",
"llllllllllllllllllllllllllllllllllllllllllllllllllllllllllllllll",
"llllllllllllllllllllllllllllllllllllllllllllllllllllllllllllllll",
"llllllllllllllllllllllllllllllllllllllllllllllllllllllllllllllll"
};
