/* XPM */
static char *result[] = {
/* columns rows colors chars-per-pixel */
"64 64 51 1 ",
"  c black",
". c #2C262C",
"X c #2E272E",
"o c gray17",
"O c #2C282C",
"+ c #2C292C",
"@ c #2D282D",
"# c #2D292D",
"$ c #2C2A2C",
"% c #2C2B2C",
"& c #2D2A2D",
"* c #2D2B2D",
"= c #2E292E",
"- c #2E2A2E",
"; c #2E2B2E",
": c #2F2B2F",
"> c #2C2C2C",
", c #2D2C2D",
"< c #2D2D2D",
"1 c #2E2C2E",
"2 c #2E2D2E",
"3 c #2F2D2F",
"4 c gray18",
"5 c #2F2E2F",
"6 c #2F2F2F",
"7 c #302F30",
"8 c #312E31",
"9 c gray19",
"0 c #323132",
"q c gray20",
"w c #343234",
"e c #353335",
"r c #363236",
"t c #353535",
"y c gray21",
"u c #383338",
"i c #393539",
"p c #3A353A",
"a c #3B373B",
"s c #3C383C",
"d c #3D3B3D",
"f c #3D3C3D",
"g c #3E3C3E",
"h c #3F3D3F",
"j c #403E40",
"k c #434243",
"l c #444444",
"z c gray27",
"x c #464646",
"c c #ED1C24",
"v c white",
/* pixels */
"xxxxxxxxxxxxxxxxxxxxxxxxxxxxxxxxxxxxxxjjjxxxxxxxxxxxxxxxxxxxxxxx",
"xxxxxxxxxxxxxxxxxxxxxxxxxxxxxxxxxxxjsssxjjxxxxxxxxxxxxxxxxxxxxxx",
"xxxxxxxxxxxxxxxxxxxxxxxxxxxxxxxkjdsuus%29ssjxxxxxxxxxxxxxxxxxxxx",
"xxxxxxxxxxxxxxxxxxxxxxxxxxxjkddksus%>$@u*4xsjxxxxxxxxxxxxxxxxxxx",
"xxxxxxxxxxxxxjjjjkkjjjjjjsdsjdd0%<,>,4$O;$<jusxxxxxxxxxxxxxxxxxx",
"xxxxxxxxxxxjjsjkkjjjjjjjspd,e<<e<,9>2>>>$;&$jsjxxxxxxxxxxxxxxxxx",
"xxxxxxxxxxjus$,2*::$**$$$%<<44q>>22222>>2$=O>4sjjxxxxxxxxxxxxxxx",
"xxxxxxxxxxj49,9yq9999999><9   22222;;;22>2$$$>jjjxxxxxxxxxxxxxxx",
"xxxxxxxxxx4>9>,,>>>>>>>                  >>$=2$9jsxxxxxxxxxxxxxx",
"xxxxxxxxxx7522222222                       ;O2$>9sxxxxxxxxxxxxxx",
"xxxxxxxxxx422222222                        $O2>;$ssxxxxxxxxxxxxx",
"xxxxxxxxxx8;;;11;                           $;$;$2sxxxxxxxxxxxxx",
"xxxxxxxzx6%>>,,>>                           $==OO>%jjjxxxxxxxxxx",
"xxxxxzlzz4$>>>>>                             >>$O>4jjjxxxxxxxxxx",
"xxxxzzllu<1>>#;$                              >$$;$4*sjxxxxxxxxx",
"xxxzzlhai<$>>#2>      cccc          cccc      2>$==>$9sjxxxxxxxx",
"xxzzzjrg>>,,,&2>      cccc          cccc      2>2$O2$>jjxxxxxxxx",
"xxzzlf4>44;>>&2,      cccc          cccc      ;;>$O;>>9sjxxxxxxx",
"xxzzz4>h2>;>>#2>      cccc          cccc      >;2O+2>2>2jxxxxxxx",
"xxzzz442;>>>>#2>                              >$+O>>22$>jxxxxxxx",
"xxxzz62>,>>>>+*4                               p*%,221>>jxxxxxxx",
"xxlxx,>22>>>>$+4>                              ,$>22;>2$x    xxx",
"xzzz6422>>*O%&$<<                         v     9<22*2%9x     xx",
"xzzz6h>>>*=>>>><,h                       vv     $22$2&>9x     xx",
"xxxz6g4>#;>>>>>,>6h   vv                 v      ;;;,>e29      xx",
"xxxx9664#2>>222,>>6    v                v       >2O;$j9       xx",
"xxxxzzo>+2>>;;222><     v               v      ;$>;O8x9      xxx",
"xx    zz$$>>>21;         v             v       $=>$%j2       xxx",
"xx      ll$$>>>2         vvv         vv       >;O;$,w8       xxx",
"xx      zxzt%+             vvv      vv        2OO;>>>j     xxxxx",
"xx       xxx9                vvvvvvv              >2$2      xxxx",
"xx       xxx9                                      2$>      xxxx",
"xxx       xx9       ,                               $$       xxx",
"xxxx      xx9     >>>                                 x       xx",
"xxxxx     xx9    2>>>>                     $%@         x      xx",
"xxxxx      x9    2>>                     ,>,>>$               xx",
"xxxxxx           2>>                     ,>,>>$O              xx",
"xxxxxx           *>>                     ;;;;$$+.X            xx",
"xxxxxx           $%>      ;             -=-==+$$OO2>          xx",
"xxxxxxx          ;&$     +++++          ++$$$+++$$%$$        xxx",
"xxxxxxxx        >*&$      $$$OO$>       >>>>>>>>>>222>9jxxxxxxxx",
"xxxxxxxxxxxxxxx9,+O%       $$$$$$$;     %*&%%$$$$&$%$$$jxxxxxxxx",
"xxxxxxxxxxxxxxxxxq7>>       >>>,22>>     >,,>>>>>>,>>>>xxxxxxxxx",
"xxxxxxxxxxxxxxxxy9922,        $$$$;$      ,,>>>>>>,>>>9xxxxxxxxx",
"xxxxxxxxxxxxxxxxxx2222,        >>>>>      222222222222xxxxxxxxxx",
"xxxxxxxxxxxxxxxxx22222,>       >>>>21      ;;;;;;1;;2$9xxxxxxxxx",
"xxxxxxxxxxxxxxxxkj2222222      222#+,        %%%%%%3x99xxxxxxxxx",
"xxxxxxxxxxxxxxxy999221;;;;     ;+;kje2        <,<<<<>>9xxxxxxxxx",
"xxxxxxxxxxxxxxxxxy<%%%%%       5jj9>9x         xxxxxxxxxxxxxxxxx",
"xxxxxxxxxxxxxxxxxxxk          <<>>9xxxxx        xxxxxxxxxxxxxxxx",
"xxxxxxxxxxxxxxxxx             xxxxxxxxxxx         xxxxxxxxxxxxxx",
"xxxxxxxxxxxxxxxxx             xxxxxxxxxxxx           xxxxxxxxxxx",
"xxxxxxxxxxxxxxxx            xxxxxxxxxxxxxxx            xxxxxxxxx",
"xxxxxxxxxxxxxxx         xxxxxxxxxxxxxxxxxxxx           xxxxxxxxx",
"xxxxxxxxxxxxxxx      xxxxxxxxxxxxxxxxxxxxxxxxx         xxxxxxxxx",
"xxxxxxxxxxxxxxx     xxxxxxxxxxxxxxxxxxxxxxxxxxxxx      xxxxxxxxx",
"xxxxxxxxxxxxxxx     xxxxxxxxxxxxxxxxxxxxxxxxxxxxxxx    xxxxxxxxx",
"xxxxxxxxxxxxxxx    xxxxxxxxxxxxxxxxxxxxxxxxxxxxxxxxxxxxxxxxxxxxx",
"xxxxxxxxxxxxxxxxxxxxxxxxxxxxxxxxxxxxxxxxxxxxxxxxxxxxxxxxxxxxxxxx",
"xxxxxxxxxxxxxxxxxxxxxxxxxxxxxxxxxxxxxxxxxxxxxxxxxxxxxxxxxxxxxxxx",
"xxxxxxxxxxxxxxxxxxxxxxxxxxxxxxxxxxxxxxxxxxxxxxxxxxxxxxxxxxxxxxxx",
"xxxxxxxxxxxxxxxxxxxxxxxxxxxxxxxxxxxxxxxxxxxxxxxxxxxxxxxxxxxxxxxx",
"xxxxxxxxxxxxxxxxxxxxxxxxxxxxxxxxxxxxxxxxxxxxxxxxxxxxxxxxxxxxxxxx",
"xxxxxxxxxxxxxxxxxxxxxxxxxxxxxxxxxxxxxxxxxxxxxxxxxxxxxxxxxxxxxxxx"
};
