/* XPM */
static char *result[] = {
/* columns rows colors chars-per-pixel */
"64 64 48 1 ",
"  c black",
". c #2C262C",
"X c #2E272E",
"o c gray17",
"O c #2C282C",
"+ c #2C292C",
"@ c #2D282D",
"# c #2D292D",
"$ c #2C2A2C",
"% c #2C2B2C",
"& c #2D2A2D",
"* c #2D2B2D",
"= c #2E292E",
"- c #2E2A2E",
"; c #2E2B2E",
": c #2F2B2F",
"> c #2C2C2C",
", c #2D2C2D",
"< c #2D2D2D",
"1 c #2E2C2E",
"2 c #2E2D2E",
"3 c gray18",
"4 c #2F2E2F",
"5 c #2F2F2F",
"6 c #302F30",
"7 c #312E31",
"8 c gray19",
"9 c #323132",
"0 c gray20",
"q c #353335",
"w c #363236",
"e c gray21",
"r c #383338",
"t c #393539",
"y c #3A353A",
"u c #3B373B",
"i c #3C383C",
"p c #3D3B3D",
"a c #3D3C3D",
"s c #3E3C3E",
"d c #3F3D3F",
"f c #403E40",
"g c #434243",
"h c #444444",
"j c gray27",
"k c #464646",
"l c #ED1C24",
"z c white",
/* pixels */
"kkkkkkkkkkkkkkkkkkkkkkkkkkkkkkkkkkkkkkfffkkkkkkkkkkkkkkkkkkkkkkk",
"kkkkkkkkkkkkkkkkkkkkkkkkkkkkkkkkkkkfiiikffkkkkkkkkkkkkkkkkkkkkkk",
"kkkkkkkkkkkkkkkkkkkkkkkkkkkkkkkgfpirri%28iifkkkkkkkkkkkkkkkkkkkk",
"kkkkkkkkkkkkkkkkkkkkkkkkkkkfgppgiri%>$@r*3kifkkkkkkkkkkkkkkkkkkk",
"kkkkkkkkkkkkkffffggffffffipifpp9%<,>,3$O;$<frikkkkkkkkkkkkkkkkkk",
"kkkkkkkkkkkffifggfffffffiyp,q<<q<,8>2>>>$;&$fifkkkkkkkkkkkkkkkkk",
"kkkkkkkkkkfri$,2*::$**$$$%<<330>>22222>>2$=O>3iffkkkkkkkkkkkkkkk",
"kkkkkkkkkkf38,8e08888888><8   22222;;;22>2$$$>fffkkkkkkkkkkkkkkk",
"kkkkkkkkkk3>8>,,>>>>>>>                  >>$=2$8fikkkkkkkkkkkkkk",
"kkkkkkkkkk6422222222                       ;O2$>8     kkkkkkkkkk",
"kkkkkkkkkk322222222                        $O2>;$       kkkkkkkk",
"kkkkkkkkkk7;;;11;                           $;$;$        kkkkkkk",
"kkkkkkkjk5%>>,,>>                           $==OO         kkkkkk",
"kkkkkjhjj3$>>>>>                             >>$O>3       kkkkkk",
"kkkkjjhhr<1>>#;$                              >$$;$3      kkkkkk",
"kkkjjhdut<$>>#2>      llll          llll      2>$==>$     kkkkkk",
"kkjjjfws>>,,,&2>      llll          llll      2>2$O2$     kkkkkk",
"kkjjha3>33;>>&2,      llll          llll      ;;>$O;>     kkkkkk",
"kkjjj3>d2>;>>#2>      llll          llll      >;2O+2      kkkkkk",
"kkjjj332;>>>>#2>                              >$+O>>     kkkkkkk",
"kkkjj52>,>>>>+*3                               y*%,      kkkkkkk",
"kkhkk,>      $+3>                              ,$>2      kkkkkkk",
"kjjj532      &$<<                         z     8<      kkkkkkkk",
"kjjj5d>       ><,d                       zz     $2     8kkkkkkkk",
"kkkj5s3       >,>5d   zz                 z      ;;     8kkkkkkkk",
"kkkk8553#     2,>>5    z                z       >2     8kkkkkkkk",
"kkkkjjo>      222><     z               z      ;$>     8kkkkkkkk",
"kkkkjkj       1          z             z       $=>      kkkkkkkk",
"kkkkkk       >>          zzz         zz       >;O;       kkkkkkk",
"kkkkkk                     zzz      zz        2OO;        kkkkkk",
"kkkkk       8                zzzzzzz            $$>       kkkkkk",
"kkkkk      k8                                     22       kkkkk",
"kkkkk     k         ,                                      kkkkk",
"kkkkk            2>>>                                      kkkkk",
"kkkkk            2>>>>                   %*$               kkkkk",
"kkkkk           #2>>                     ,>,>>$            kkkkk",
"kkkkkk         >#2>>                     ,>,>>$O=          kkkkk",
"kkkkkkk       >>$*>>                     ;;;;$$+.X$$       kkkkk",
"kkkkkkkkkkkkkf22>$%>     1;11;          -=-==+$$OO2>>2ikkkkkkkkk",
"kkkkkkkkkkkk88fg1;&$     +++++                 +$$%$$$ifkkkkkkkk",
"kkkkkkkkkkkkk8<>>*&$     $$$$OO$                  222>8fkkkkkkkk",
"kkkkkkkkkkkkkkk8,+O%     $$$$$$$$$                 %$$$fkkkkkkkk",
"kkkkkkkkkkkkkkkkk06      >>>>>>,22>>                  >kkkkkkkkk",
"kkkkkkkkkkkkkkkke88     $$$$$$$$$$;$>,>,,>,            kkkkkkkkk",
"kkkkkkkkkkkkkkkkkk2     >>>>>>>>>>>>>222222222          kkkkkkkk",
"kkkkkkkkkkkkkkkkk22     >>>>>>>>>>>21;11;11;;;;;         kkkkkkk",
"kkkkkkkkkkkkkkkkgf2     2222222222#+,,%,%%%%%%%%%%%      kkkkkkk",
"kkkkkkkkkkkkkkke888      ;;;;;;;+;gfq2<62<3<<<<,<<<<      kkkkkk",
"kkkkkkkkkkkkkkkkke<      %%%%%%4ff8>8kkkkkkkkkkkkkkk      kkkkkk",
"kkkkkkkkkkkkkkkkkkkg        <<<<>>8kkkkkkkkkkkkkkkkk      kkkkkk",
"kkkkkkkkkkkkkkkkkkkk          kkkkkkkkkkkkkkkkkkkk        kkkkkk",
"kkkkkkkkkkkkkkkkkkkkk          kkkkkkkkkkkkkkkk           kkkkkk",
"kkkkkkkkkkkkkkkkkkkkk           kkkkkkkkkkk              kkkkkkk",
"kkkkkkkkkkkkkkkkkkkkkkkk         kkkkkkkkk              kkkkkkkk",
"kkkkkkkkkkkkkkkkkkkkkkkkkk       kkkkkkkk            kkkkkkkkkkk",
"kkkkkkkkkkkkkkkkkkkkkkkkkk       kkkkkkkk          kkkkkkkkkkkkk",
"kkkkkkkkkkkkkkkkkkkkkkkk         kkkkkkkk      kkkkkkkkkkkkkkkkk",
"kkkkkkkkkkkkkkkkkkkkkk          kkkkkkkkk     kkkkkkkkkkkkkkkkkk",
"kkkkkkkkkkkkkkkkkkkkkk          kkkkkkkkkkkkkkkkkkkkkkkkkkkkkkkk",
"kkkkkkkkkkkkkkkkkkkkkk        kkkkkkkkkkkkkkkkkkkkkkkkkkkkkkkkkk",
"kkkkkkkkkkkkkkkkkkkkkk      kkkkkkkkkkkkkkkkkkkkkkkkkkkkkkkkkkkk",
"kkkkkkkkkkkkkkkkkkkkkkkkkkkkkkkkkkkkkkkkkkkkkkkkkkkkkkkkkkkkkkkk",
"kkkkkkkkkkkkkkkkkkkkkkkkkkkkkkkkkkkkkkkkkkkkkkkkkkkkkkkkkkkkkkkk",
"kkkkkkkkkkkkkkkkkkkkkkkkkkkkkkkkkkkkkkkkkkkkkkkkkkkkkkkkkkkkkkkk"
};
