/* XPM */
static char *result[] = {
/* columns rows colors chars-per-pixel */
"64 64 48 1 ",
"  c black",
". c #2C262C",
"X c #2C282C",
"o c #2C292C",
"O c #2D282D",
"+ c #2D292D",
"@ c #2C2A2C",
"# c #2C2B2C",
"$ c #2D2A2D",
"% c #2D2B2D",
"& c #2E292E",
"* c #2E2A2E",
"= c #2E2B2E",
"- c #2F2B2F",
"; c #2C2C2C",
": c #2D2C2D",
"> c #2D2D2D",
", c #2E2C2E",
"< c #2E2D2E",
"1 c #2F2D2F",
"2 c gray18",
"3 c #2F2E2F",
"4 c #2F2F2F",
"5 c #302F30",
"6 c #312E31",
"7 c gray19",
"8 c #323132",
"9 c gray20",
"0 c #353335",
"q c #363236",
"w c #353535",
"e c gray21",
"r c #383338",
"t c #393539",
"y c #3A353A",
"u c #3B373B",
"i c #3C383C",
"p c #3D3B3D",
"a c #3D3C3D",
"s c #3E3C3E",
"d c #3F3D3F",
"f c #403E40",
"g c #434243",
"h c #444444",
"j c gray27",
"k c #464646",
"l c #ED1C24",
"z c white",
/* pixels */
"kkkkkkkkkkkkkkkkkkkkkkkkkkkkkkkkkkkkkkfffkkkkkkkkkkkkkkkkkkkkkkk",
"kkkkkkkkkkkkkkkkkkkkkkkkkkkkkkkkkkkfiiikffkkkkkkkkkkkkkkkkkkkkkk",
"kkkkkkkkkkkkkkkkkkkkkkkkkkkkkkkgfpirri#<7iifkkkkkkkkkkkkkkkkkkkk",
"kkkkkkkkkkkkkkkkkkkkkkkkkkkfgppgiri#;@Or%2kifkkkkkkkkkkkkkkkkkkk",
"kkkkkkkkkkkkkffffggffffffipifpp8#>:;:2@X=@>frikkkkkkkkkkkkkkkkkk",
"kkkkkkkkkkkffifggfffffffiyp:0>>0>:7;<;;;@=$@fifkkkkkkkkkkkkkkkkk",
"kkkkkkkkkkfri@:<%--@%%@@@#>>229;;<<<<<;;<@&X;2iffkkkkkkkkkkkkkkk",
"kkkkkkkkkkf27:7e97777777;>7   <<<<<===<<;<@@@;fffkkkkkkkkkkkkkkk",
"kkkkkkkkkk2;7;::;;;;;;;                  ;;@&<@7fikkkkkkkkkkkkkk",
"kkkkkkkkkk53<<<<<<<<                       =X<@;7ikkkkkkkkkkkkkk",
"kkkkkkkkkk2<<<<<<<<                        @X<;=@iikkkkkkkkkkkkk",
"kkkkkkkkkk6===,,=                           @=@=@<ikkkkkkkkkkkkk",
"kkkkkkkjk4#;;::;;                           @&&XX;#fffkkkkkkkkkk",
"kkkkkjhjj2@;;;;;                             ;;@X;2fffkkkkkkkkkk",
"kkkkjjhhr>,;;+=@                              ;@@=@2%ifkkkkkkkkk",
"kkkjjhdut>@;;+<;      llll          llll      <;@&&;@7ifkkkkkkkk",
"kkjjjfqs;;:::$<;      llll          llll      <;<@X<@;ffkkkkkkkk",
"kkjjha2;22=;;$<:      llll          llll      ==;@X=;;7ifkkkkkkk",
"kkjjj2;d<;=;;+<;      llll          llll      ;=<Xo<;<    kkkkkk",
"kkjjj22<=;;;;+<;                              ;@oX;;<<    kkkkkk",
"kkkjj4<;:;;;;o%2                               y%#:<<,    kkkkkk",
"kkhkk:;<<;;;;@o2;                              :@;<<=     kkkkkk",
"kjjj      %X#$@>>                         z     7><<      kkkkkk",
"kjjj       ;;;;>:                        zz     @<<@      kkkkkk",
"kkkj       ;;;;:;4    zz                 z      ===:      kkkkkk",
"kkkk       ;<<<:;;     z                z       ;<X=     kkkkkkk",
"kkkkjj     ;==<<<;>     z               z      =@;=X     kkkkkkk",
"kkkkjk     ;;<,==        z             z       @&;@#      kkkkkk",
"kkkkkk     @;;;          zzz         zz       ;=X=@:       kkkkk",
"kkkkkk     w#o#            zzz      zz           =;;;      kkkkk",
"kkkkkk    kk7>@              zzzzzzz              ;<@<      kkkk",
"kkkkkk    kk7<                                     <@;      kkkk",
"kkkkkk    kk7f     ;:                              ;@@f      kkk",
"kkkkkk    kk7i     ;;                                @kk     kkk",
"kkkkkk     k7f    ;;;;                     @#OX      <kk     kkk",
"kkkkkk     k77    ;;                     :;:;;@       kkk    kkk",
"kkkkkk       7    ;;                     :;:;;@X       k     kkk",
"kkkkkkk           ;;                     ====@@o.            kkk",
"kkkkkkk           #;                      *&&o@@X            kkk",
"kkkkkkk           $@      oo              @@@ooo@@          kkkk",
"kkkkkkkkk         $@o     @@@XX@;;;@      ;;;;;;;;<<        kkkk",
"kkkkkkkkkkkkkkk7:oX#;      @@@@@@@=<:;    $##@@@@$@#       kkkkk",
"kkkkkkkkkkkkkkkkk95;;        ;;:<<;;=$    ::;;;;;;:;;;;kkkkkkkkk",
"kkkkkkkkkkkkkkkke77<<:        @@@@=@;:     :;;;;;;:;;;7kkkkkkkkk",
"kkkkkkkkkkkkkkkkkk<<<<:        ;;;;;;<     <<<<<<<<<<<kkkkkkkkkk",
"kkkkkkkkkkkkkkkkk<<<<<:;        ;;;<,=       ====,==<@7kkkkkkkkk",
"kkkkkkkkkkkkkkkkgf<<<<<<<        <+o::#         ###1k77kkkkkkkkk",
"kkkkkkkkkkkkkkke777<<,====       =gf0<>          >>>;;7kkkkkkkkk",
"kkkkkkkkkkkkkk      #######       7;7kk           kkkkkkkkkkkkkk",
"kkkkkkkkkkkkk        9>>>>>>       kkkkkk         kkkkkkkkkkkkkk",
"kkkkkkkkkkkkk         kkkkkkk      kkkkkkkkkk     kkkkkkkkkkkkkk",
"kkkkkkkkkkkkk          kkkkk       kkkkkkkkkk     kkkkkkkkkkkkkk",
"kkkkkkkkkkkkk                      kkkkkkkkkk     kkkkkkkkkkkkkk",
"kkkkkkkkkkkkk                      kkkkkkkkkk     kkkkkkkkkkkkkk",
"kkkkkkkkkkkkkkkkkk                kkkkkkkkkkk    kkkkkkkkkkkkkkk",
"kkkkkkkkkkkkkkkkkkkk           kkkkkkkkkkkkkkkkkkkkkkkkkkkkkkkkk",
"kkkkkkkkkkkkkkkkkkkkkkkkkkkkkkkkkkkkkkkkkkkkkkkkkkkkkkkkkkkkkkkk",
"kkkkkkkkkkkkkkkkkkkkkkkkkkkkkkkkkkkkkkkkkkkkkkkkkkkkkkkkkkkkkkkk",
"kkkkkkkkkkkkkkkkkkkkkkkkkkkkkkkkkkkkkkkkkkkkkkkkkkkkkkkkkkkkkkkk",
"kkkkkkkkkkkkkkkkkkkkkkkkkkkkkkkkkkkkkkkkkkkkkkkkkkkkkkkkkkkkkkkk",
"kkkkkkkkkkkkkkkkkkkkkkkkkkkkkkkkkkkkkkkkkkkkkkkkkkkkkkkkkkkkkkkk",
"kkkkkkkkkkkkkkkkkkkkkkkkkkkkkkkkkkkkkkkkkkkkkkkkkkkkkkkkkkkkkkkk",
"kkkkkkkkkkkkkkkkkkkkkkkkkkkkkkkkkkkkkkkkkkkkkkkkkkkkkkkkkkkkkkkk",
"kkkkkkkkkkkkkkkkkkkkkkkkkkkkkkkkkkkkkkkkkkkkkkkkkkkkkkkkkkkkkkkk"
};
