/* XPM */
static char *result[] = {
/* columns rows colors chars-per-pixel */
"64 64 7 1 ",
"  c black",
". c #2E2D2E",
"X c gray20",
"o c #595408",
"O c #454245",
"+ c #464646",
"@ c #9C5A3C",
/* pixels */
"++++++++++++++++++++++++++++++++++++++++++++++++++++++++++++++++",
"++++++++++++++++++++++++++++++++++++++++++++++++++++      ++++++",
"++++++++++++++++++++++++++++++++++++++++++++++++++         +++++",
"++++++++++++++++++++++++++++++++++++++++++++++++           +++++",
"+++++++++++++++++++++++++++++++++++++++++++++++      @  @   ++++",
"++++++++++++++++++++++++++++++++++++++++++++++    @  @  @   ++++",
"++++++++++++++++++++++++++++++++++++++++++++++    @  @  @   ++++",
"++++++++++++++++++++++++++++++++++++++++++++++    @  @  @    +++",
"+++++++++++++++++++++++++++++++++++++++++++++     @  @  @    +++",
"+++++++++++++++++++++++++++++++++++++++++++++  @  @  @  @    +++",
"+++++++++++++++++++++++++++++++++++++++++++++  @  @  @  @    +++",
"+++++++++++++++++++++++++++++++++++++++++++++  @  @  @  @    +++",
"+++++++++++++++++++++++++++++++++++++++++++++  @  @  @  @    +++",
"++++++++++++++++++++++++++++++ ++++++++++++++  @  @  @  @     ++",
"++++++++++++++++++++++++++++++ ++++++++++++++  @  @  @  @  @  ++",
"++++++++++++++++++++++++++++++  ++++++++++++   @  @  @  @  @  ++",
"+++++++++++++++++++++++++++++++ ++++++++++++   @  @  @  @  @  ++",
"+++++++++++++++++++++++++++++++ ++++++ +++++  @@  @  @  @  @  ++",
"+++++++++++++++++++  +++++++++++ +++++ ++ ++  @@  @  @  @  @  ++",
"+++++++++++++++++++ ++++++++++++  +++++ + ++   @     @  @  @  ++",
"++++++++++++++++++++ ++++++++++++ +++++ ++ +        @@  @     ++",
"+++++++++++++++++++++ +++++++++++ +++++ ++ ++    @  @@  @    +++",
"++++++++++++++++++++++ +++++++++  +++++ ++ ++    @  @@  @    +++",
"+++++++++++++++++++++++ +++++++  ++++++ ++  +    @  @@  @    +++",
"++++++++++++++++++++++++ ++++++ +++++++  ++ +    @  @@  @    +++",
"++++++++++++++++++++++++ +++++                   @  @@  @   ++++",
"++++++++++++++++++++                                @@  @   ++++",
"++++++++++++++++++             OO OOOOOOO O OOOO            ++++",
"++++++++++++++++      O OOOOOOOOOO OOOOOO O OOOOOO         +++++",
"++++++++++++++     XOOO OOOOOOOOOOO OOO OOO OOOOOOOOOOO    +++++",
"+++++++++++++   XXOOOOO OOOOOOOOOOO OOO OOOO OOOOOOOOOOOX  +++++",
"+++++++++++++   OOOOOOOOOO OOOOOOOO OOO  OOO OOOOOOOOOOOO  +++++",
"++++++++++++   OOOOOOOOOOOO  OOOOOO OOOO OOO OOOOOOOOOOOO  +++++",
"++++++++++++   OOOOOOOOOOOOOO OOO OO OO  OOOO OOOOOOOOOOO   ++++",
"++++++++++++   OOOOOOOOOOO    OOO  O O OOOOOO OOOOOOOOOO    ++++",
"++++++++++++   OOOOOOOOOOO OOOOO OOO O  OOOOO OOOOOOOOO     ++++",
"++++++++++++   OOOOOOOOOOO  OOOOO OOOOO OOOOO OOOOOO    ..  ++++",
"++++++++++++     OOOOOOOOOO  OOOO OOOOO OOOOOOOOOO    ....  ++++",
"++++++++++++  ..     OOOOOOO  OOO OOOOOO OXX        ......  ++++",
"++++++++++++  ......        O OOO OOOOO         .... .....  ++++",
"++++++++++++   .o...... ....              . ........  ..    ++++",
"++++++++++++        .   ........ .........  .........       ++++",
"+++++++++++++   ...    ........ ..........            ....  ++++",
"+++++++++++++  .......    ...         ...  .. ............  ++++",
"+++++++++++++  .......  .    .... ....    ... ............  ++++",
"+++++++++++++  ......  .......... ...........     ....      ++++",
"+++++++++++++    o     ..........   ........  ...     ....  ++++",
"+++++++++++++  ... ....       .. ...        ....... ......  ++++",
"+++++++++++++  ... ...........  .......... ....    ......o  ++++",
"+++++++++++++  .o.     ....... .........       ...........  ++++",
"+++++++++++++  .o.. ...                  .......  ....  ..  ++++",
"+++++++++++++  ...  ........ ........ ..........  ..   .    ++++",
"+++++++++++++        ....... ........ .........     ......  ++++",
"+++++++++++++  ......                          ...  ......  ++++",
"+++++++++++++  .....  ........  ..........  ........ .....  ++++",
"+++++++++++++  ...o. ......o. ...........  .......... ....  ++++",
"+++++++++++++   ...........oo ........... ........... .oo.  ++++",
"+++++++++++++          .....  ......o.... ........... .     ++++",
"++++++++++++++                    .......  ......o.         ++++",
"+++++++++++++++++++++                                   ++++++++",
"+++++++++++++++++++++++++++++++++                   ++++++++++++",
"++++++++++++++++++++++++++++++++++++++++++++++++++++++++++++++++",
"++++++++++++++++++++++++++++++++++++++++++++++++++++++++++++++++",
"++++++++++++++++++++++++++++++++++++++++++++++++++++++++++++++++"
};
