/* XPM */
static char *result[] = {
/* columns rows colors chars-per-pixel */
"64 64 5 1 ",
"  c black",
". c #2E2D2E",
"X c #595408",
"o c #464646",
"O c #9C5A3C",
/* pixels */
"oooooooooooooooooooooooooooooooooooooooooooooooooooooooooooooooo",
"oooooooooooooooooooooooooooooooooooooooooooooooooooooooooooooooo",
"oooooooooooooooooooooooooooooooooooooooooooooooooooooooooooooooo",
"oooooooooooooooooooooooooooooooooooooooooooooooooooooooooooooooo",
"oooooooooooooooooooooooooooooooooooooooooooooooooooooooooooooooo",
"oooooooooooooooooooooooooooooooooooooooooooooooooooooooooooooooo",
"oooooooooooooooooooooooooooooooooooooooooooooooooooooooooooooooo",
"oooooooooooooooooooooooooooooooooooooooooooooooooooooooooooooooo",
"oooooooooooooooooooooooooooooooooooooooooooooooooooooooooooooooo",
"oooooooooooooooooooooooooooooooooooooooooooooooooooooooooooooooo",
"oooooooooooooooooooooooooooooooooooooooooooooooooooooooooooooooo",
"oooooooooooooooooooooooooooooooooooooooooooooooooooooooooooooooo",
"oooooooooooooooooooooooooooooooooooooooooooooooooooooooooooooooo",
"oooooooooooooooooooooooooooooooooooooooooooooooooooooooooooooooo",
"oooooooooooooooooooooooooooooooooooooooooooooooooooooooooooooooo",
"oooooooooooooooooooooooooooooooooooooooooooooooooooooooooooooooo",
"oooooooooooooooooooooooooooooooooooooooooooooooooooooooooooooooo",
"oooooooooooooooooooooooooooooooooooooooooooooooooooooooooooooooo",
"oooooooooooooooooooooooooooooooooooooooooooooooooooooooooooooooo",
"oooooooooooooooooooooooooooooooooooooooooooooooooooooooooooooooo",
"oooooooooooooooooooooooooooooooooooooooooooooooooooooooooooooooo",
"oooooooooooooooooooooooooooooooooooooooooooooooooooooooooooooooo",
"oooooooooooooooooooooooooooooooooooooooooooooooooooooooooooooooo",
"oooooooooooooooooooooooooooooooooooooooooooooooooooooooooooooooo",
"oooooooooooooooooooooooooooooooooooooooooooooooooooooooooooooooo",
"oooooooooooooooooooooooooooooo                 ooooooooooooooooo",
"oooooooooooooooooooo                              oooooooooooooo",
"oooooooooooooooooo              OOOOOOOOOOOOOO           ooooooo",
"oooooooooooooooo      OOOOOOOOOOOOOOOOOOOOOOOOOOO         oooooo",
"oooooooooooooo                                             ooooo",
"ooooooooooooo                                              ooooo",
"ooooooooooooo   OOOOOOOOOOOOOOOOOOOOOOOOOOOOOOOOOOOOOOOOO  ooooo",
"oooooooooooo   OOOOOOOOOOOOOOOOOOOOOOOOOOOOOOOOOOOOOOOOOO  ooooo",
"oooooooooooo                                           O    oooo",
"oooooooooooo                                                oooo",
"oooooooooooo   OOOOOOOOOOOOOOOOOOOOOOOOOOOOOOOOOOOOO        oooo",
"oooooooooooo     OOO                                    ..  oooo",
"oooooooooooo                                          ....  oooo",
"oooooooooooo  ..             OOOOOOOOOOOO           ......  oooo",
"oooooooooooo  ......                            .... .....  oooo",
"oooooooooooo   .X...... ....              . ........  ..    oooo",
"oooooooooooo        .   ........ .........  .........       oooo",
"ooooooooooooo   ...    ........ ..........            ....  oooo",
"ooooooooooooo  .......    ...         ...  .. ............  oooo",
"ooooooooooooo  .......  .    .... ....    ... ............  oooo",
"ooooooooooooo  ......  .......... ...........     ....      oooo",
"ooooooooooooo    X     ..........   ........  ...     ....  oooo",
"ooooooooooooo  ... ....       .. ...        ....... ......  oooo",
"ooooooooooooo  ... ...........  .......... ....    ......X  oooo",
"ooooooooooooo  .X.     ....... .........       ...........  oooo",
"ooooooooooooo  .X.. ...                  .......  ....  ..  oooo",
"ooooooooooooo  ...  ........ ........ ..........  ..   .    oooo",
"ooooooooooooo        ....... ........ .........     ......  oooo",
"ooooooooooooo  ......                          ...  ......  oooo",
"ooooooooooooo  .....  ........  ..........  ........ .....  oooo",
"ooooooooooooo  ...X. ......X. ...........  .......... ....  oooo",
"ooooooooooooo   ...........XX ........... ........... .XX.  oooo",
"ooooooooooooo          .....  ......X.... ........... .     oooo",
"oooooooooooooo                    .......  ......X.         oooo",
"ooooooooooooooooooooo                                   oooooooo",
"ooooooooooooooooooooooooooooooooo                   oooooooooooo",
"oooooooooooooooooooooooooooooooooooooooooooooooooooooooooooooooo",
"oooooooooooooooooooooooooooooooooooooooooooooooooooooooooooooooo",
"oooooooooooooooooooooooooooooooooooooooooooooooooooooooooooooooo"
};
