/* XPM */
static char *result[] = {
/* columns rows colors chars-per-pixel */
"64 64 26 1 ",
"  c black",
". c #62593D",
"X c #635A3D",
"o c #6E6139",
"O c #6F6239",
"+ c #7A6934",
"@ c #464646",
"# c #555142",
"$ c #555346",
"% c #625F44",
"& c #636045",
"* c #6E6A44",
"= c #6F6B44",
"- c #6F6C45",
"; c #7A7443",
": c #7A7543",
"> c #8C762E",
", c #847032",
"< c #FFC20E",
"1 c #8C8642",
"2 c #9C9342",
"3 c #A69D40",
"4 c #ABA041",
"5 c #ACA240",
"6 c #FFA3B1",
"7 c white",
/* pixels */
"@@@@@@@@@@@@@@@@@@@@@@@@@@@@@@@@@@@@@@@@@@@@@@@@@@@@@@@@@@@@@@@@",
"@@@@@@@@@@@@@@@@@@@@@@@@@@@@     @@@@@@@@@@@@@@@@@@@@@@@@@@@@@@@",
"@@@@@@@@@@@@@@@@@@@@@@@@@@@  777  @@@@@@@@@@@@@@@@@@@@@@@@@@@@@@",
"@@@@@@@@@@@@@@@@@@@@@@@@@@  77777 @@@@@@@@@@@@@@@@@@@@@@@@@@@@@@",
"@@@@@@@@@@@@@@@@@@@@@@@@@@ 7777777 @@@@@@@@@@@@@@@@@@@@@@@@@@@@@",
"@@@@@@@@@@@@@@@@@@@@@@@@@  777<777 @@@@@@@@@@@@@@@@@@@@@@@@@@@@@",
"@@@@@@@@@@@@@@@@@@@@@@@@@ 777<<<77  @@@@@@@@@@@@@@@@@@@@@@@@@@@@",
"@@@@@@@@@@@@@@@@@@@@@@@@@ 7777<7777 @@@@@@@@@@@@@@@@@@@@@@@@@@@@",
"@@@@@@@@@@@@@@@@@@@@@@@@@ 7777<7777  @@@@@@@@@@@@@@@@@@@@@@@@@@@",
"@@@@@@@@@@@@@@@@@@@@@@@@@ 7777777777 @@@@@@@@@@@@@@@@@@@@@@@@@@@",
"@@@@@@@@@@@@@@@@@@@@@@@@@ 7777777777 @@@@@@@@@@@@@@@@@@@@@@@@@@@",
"@@@@@@@@@@@@@@@@@@@@@@@@          77 @@@@@@@@@@@@@@@@@@@@@@@@@@@",
"@@@@@@@@@@@@@@@@@@@@@@@@  6666666    @@@@@@@@@@@@@@@@@@@@@@@@@@@",
"@@@@@@@@@@@@@@@@@@@@@@@  666666666666 @@@@@@@@@@@@@@@@@@@@@@@@@@",
"@@@@@@@@@@@@@@@@@@@@@@@ 6666666666666 @@@@@@@@@@@@@@@@@@@@@@@@@@",
"@@@@@@@@@@@@@@@@@@@@@@@ 6    666    6  @@@@@@@@@@@@@@@@@@@@@@@@@",
"@@@@@@@@@@@@@@@@@@@@@@  66  66666  666 @@@@@@@@@@@@@@@@@@@@@@@@@",
"@@@@@@@@@@@@@@@@@@@@@@ 666666666666666 @@@@@@@@@@@@@@@@@@@@@@@@@",
"@@@@@@@@@@@@@@@@@@@@@@  66666666666666 &&XX&$@@@@@@@@@@@@@@@@@@@",
"@@@@@@@@@@@@@@@@@@@@@@@ 6666     66666 @@@@@$@@@@@@@@@@@@@@@@@@@",
"@@@@@@@@@@@@@@@@@@@@$@@   66666666666 .X@@@@.@@@@@@@@@@@@@@@@@@@",
"@@@@@@@@@@@@@@@@@@@$$$@&@   66666666  @@@@@@@@@@@@@@@@@@@@@@@@@@",
"@@@@@@@@@@@@@@@@@@@@=&11@@@         :&@@@@@@@@$@@   @@@@@@@@@@@@",
"@@@@@@@@@@@@@   @@$$@&:11@@@   6  -:354@@@@@@=@@  7  @@@@@@@@@@@",
"@@@@@@@@@@@@@ 7 @@$@,>2       666        @@@@$@@ 777 @@@@@@@@@@@",
"@@@@@@@@@@@@@ 77  @@@@  77777 666 777777  @@@&o  777 @@@@@@@@@@@",
"@@@@@@@@@@@@@ 777     7777777 666 7777777       7777        @@@@",
"@@@@@@@@@@@@@ 777777777777777 666 777777777777777777 666666  @@@",
"@@@@          777777777777777    777777777777777777  6666666 @@@",
"@@@@ 66666666 77777777777777777 7777777777777777777          @@@",
"@@@ 6666666666 777777777777777777777777777777777777 @@@@@@@@@@@@",
"@@@            777777777777777<<<777777777777777777 @@@@@@@@@@@@",
"@@@@@@@@@@@@@@ 777777777777777<<<777777777777777777 @@@@@@@@@@@@",
"@@@@@@@@@@@@@  777777777777<<<<<<<<<777777777777777 @@@@@@@@@@@@",
"@@@@@@@@@@@@@ 777777   7777<<<<<<<<<777 77777777777 @@@@@@@@@@@@",
"@@@@@@@@@@@@@ 7777   @ 7777777<<<777777   777777777 @@@@@@@@@@@@",
"@@@@@@@@@@@@@ 777  &&& 7777777<<<777777 @   7777777 @@@@@@@@@@@@",
"@@@@@@@@@@@@@ 77 @@@@@ 7777777<<<777777 @@@  77777  @@@@@@@@@@@@",
"@@@@@@@@@@@@  7  @&:+O  777777<<<77777 @@@@@ 77777 @@@@@@@@@@@@@",
"@@@@@@@@@@@@    @1>>@@+ 777777<<<77777 @@@@@@ 777  @@@@@@@@@@@@@",
"@@@@@@@@@@@@@@@@&+@@@@@ 77777777777777 1@@@@:     @@@@@@@@@@@@@@",
"@@@@@@@@@@@@@@@@>@@@@@@ 77777777777777 +@@@@@@@@@@@@@@@@@@@@@@@@",
"@@@@@@@@@@@@@@@@@@@@:1@ 77777777777777 @@@@@@@@@@@@@@@@@@@@@@@@@",
"@@@@@@@@@@@@@@@@@@@@:2@ 77777777777777 @@@@@@@@@@$@@@@@@@@@@@@@@",
"@@@@@@@@@@@@@@@@@@@:22  77777777777777 @@@@@@@@*$$@@@@@@@@@@@@@@",
"@@@@@@@@@@@@@@@@@@@:1: 777777777777777 @@@@@@@@@@@@@@@@@@@@@@@@@",
"@@@@@@@@@@@@@@@$;&::& 77777777777777777 1+>::%$@@@@@@@@@@@@@@@@@",
"@@@@@@@@@@@@@@@@$$$=$ 77777777777777777 +@@+@$@@@@@@@@@@@@@@@@@@",
"@@@@@@@@@@@@@@@@@@@@@ 777777777777777777 @@@#@@@@@@@@@@@@@@@@@@@",
"@@@@@@@@@@@@@@@@@@$@@ 7777777 7777777777 @@@@@@@@@@@@@@@@@@@@@@@",
"@@@@@@@@@@@@@@@@@@@@ 7777 777 777777  77  @@@@@@@@@@@@@@@@@@@@@@",
"@@@@@@@@@@@@@@@@@@@@ 7777 777 7777777 777  @@@@@@@@@@@@@@@@@@@@@",
"@@@@@@@@@@@@@@@@@@@  7777 777 7777 77  777  @@@@@@@@@@@@@@@@@@@@",
"@@@@@@@@@@@@@@@@@@@ 7777  777 7777 777 77777 @@@@@@@@@@@@@@@@@@@",
"@@@@@@@@@@@@@@@@@@@ 7777 7777 7777 7777 7777 @@@@@@@@@@@@@@@@@@@",
"@@@@@@@@@@@@@@@@@@ 77777 777 77777 77777 7777  @@@@@@@@@@@@@@@@@",
"@@@@@@@@@@@@@@@@@@ 7777  777 77777  77777 7777  @@@@@@@@@@@@@@@@",
"@@@@@@@@@@@@@@@@@  777  7777 777777  77777 77777  @@@@@@@@@@@@@@",
"@@@@@@@@@@@@@@@@@ 7777 77777 7777777  7777  77777 @@@@@@@@@@@@@@",
"@@@@@@@@@@@@@@@@  777 777777                        @@@@@@@@@@@@",
"@@@@@@@@@@@@@@@  77           @@@@@@@@@@@@@@@@@@@@  @@@@@@@@@@@@",
"@@@@@@@@@@@@@@@@   @@@@@@@@@@@@@@@@@@@@@@@@@@@@@@@@@@@@@@@@@@@@@",
"@@@@@@@@@@@@@@@@@@@@@@@@@@@@@@@@@@@@@@@@@@@@@@@@@@@@@@@@@@@@@@@@",
"@@@@@@@@@@@@@@@@@@@@@@@@@@@@@@@@@@@@@@@@@@@@@@@@@@@@@@@@@@@@@@@@"
};
