/* XPM */
static char *result[] = {
/* columns rows colors chars-per-pixel */
"64 64 117 2 ",
"   c black",
".  c #625A3D",
"X  c #7A6935",
"o  c #7A6A34",
"O  c #464646",
"+  c #555142",
"@  c #555346",
"#  c #625F44",
"$  c #626045",
"%  c #636045",
"&  c #6E6A44",
"*  c #6E6B44",
"=  c #6F6B44",
"-  c #6F6C45",
";  c #797543",
":  c #7A7442",
">  c #7A7543",
",  c #7B7644",
"<  c #8D772D",
"1  c #977C2A",
"2  c #977D2A",
"3  c #977C2B",
"4  c #837031",
"5  c #847032",
"6  c #847E42",
"7  c #847E43",
"8  c #847F43",
"9  c #857F43",
"0  c #B9951F",
"q  c #BA941E",
"w  c #BE971E",
"e  c #A68726",
"r  c #A68825",
"t  c #AC8B23",
"y  c #AE8C23",
"u  c #AE8D23",
"i  c #AC8B24",
"p  c #B29021",
"a  c #B39022",
"s  c #B49120",
"d  c #B9AE3F",
"f  c #BAAE3F",
"g  c #BAAF3F",
"h  c #BEB33E",
"j  c #BEB33F",
"k  c #C0981E",
"l  c #C89D19",
"z  c #CCA018",
"x  c #D4A514",
"c  c #D7A715",
"v  c #DDAB12",
"b  c #DFAC11",
"n  c #E6B10F",
"m  c #F0BA0D",
"M  c #C2B63F",
"N  c #C4B73F",
"B  c #C3B83F",
"V  c #C4B83E",
"C  c #C4B83F",
"Z  c #C7BB3F",
"A  c #C8BB3E",
"S  c #C9BA3F",
"D  c #CABD3E",
"F  c #CBBF3F",
"G  c #CCBF3E",
"H  c #CCBE3F",
"J  c #FCC008",
"K  c #FFC20E",
"L  c #CEC03E",
"P  c #CFC13E",
"I  c #D3C53E",
"U  c #D3C63E",
"Y  c #D6C73F",
"T  c #D9CA3C",
"R  c #DBCB3E",
"E  c #DDCE3E",
"W  c #E1D13E",
"Q  c #E6D53D",
"!  c #E7D63D",
"~  c #F6E43C",
"^  c #FDEA3C",
"/  c #8D8642",
"(  c #8D8742",
")  c #8E8742",
"_  c #8F8742",
"`  c #978F42",
"'  c #988F41",
"]  c #979042",
"[  c #9E9641",
"{  c #9F9641",
"}  c #9F9741",
"|  c #9E9542",
" . c #A59B41",
".. c #A69D40",
"X. c #A79D40",
"o. c #A69D41",
"O. c #A69E40",
"+. c #ABA041",
"@. c #ACA240",
"#. c #ADA340",
"$. c #AEA440",
"%. c #AEA441",
"&. c #AEA541",
"*. c #B2A840",
"=. c #B3A840",
"-. c #B2A940",
";. c #B4A941",
":. c #B9AD40",
">. c #B8AE40",
",. c #B9AE40",
"<. c #BDB140",
"1. c #BEB140",
"2. c #BEB340",
"3. c #C0B340",
"4. c #C5B840",
"5. c #FFA3B1",
"6. c white",
/* pixels */
"O O O O O O O O O O O O O O O O O O O O O O O O O O O O O O O O O O O O O O O O O O O O O O O O O O O O O O O O O O O O O O O O ",
"O O O O O O O O O O O O O O O O O O O O O O O O O O O O           O O O O O O O O O O O O O O O O O O O O O O O O O O O O O O O ",
"O O O O O O O O % O O O O O O O O O O O O O O O O O O     6.6.6.    O O O O O O O O O O O O O O O O , O O O O O O O O O O O O O ",
"O O O O O O O O O O O O O O O O O O O O O O O O O O     6.6.6.6.6.  O O O O O O O O O O O O O $ O % % O O O O O O O O O O O O O ",
"O O O O O O O O O O O O O O O O O O O O O O O @ O O   6.6.6.6.6.6.6.  O O O O O O O O O O O O O O O , } } ) * X O O O O O O O O ",
"O O O O O O O O O O O O O O O O O O O O O O O @ O     6.6.6.K 6.6.6.  O O O O O O O O O O O O O O H U U f <.y O O O O O O O O O ",
"O O O + O O O O O O O O O O O O O O O O O O O # O   6.6.6.K K K 6.6.    O O + O O O O O O O O O O N I F l q O O O O O O O O O O ",
"O O O O O O O O O O O O O O O O O O O O O O O = O   6.6.6.6.K 6.6.6.6.  O @ O O O O O O O O O O O ! 2.X.O O O O O O O O O O O O ",
"O O O O O O O O O O O O O O O O O O O O O O O O O   6.6.6.6.K 6.6.6.6.    @ O O O O O O O O O O O %.,.L O O O O O O O O O O O O ",
"O O O @ O O O O O O O O O O O O O O O O O O O % =   6.6.6.6.6.6.6.6.6.6.  $ @ O O O O O O O O O O R E g N O O O O O O $ O O O O ",
"O O O : O O O O O O O O O O O O O O O O O O O = @   6.6.6.6.6.6.6.6.6.6.  = O O O O O O O O O O O x 3.L Q O O O O O O O O O O O ",
"O O O = O O O O O O O O O O O O O O O O O O O 5                     6.6.  O O O O O O O O O O O O O n b W O O O O O O O O O O O ",
"O O O O O O O O O O O O O O O O O O O O O O O O     5.5.5.5.5.5.5.        O O O O O O O O O O O O O O O k C O O O O O O O O O O ",
"O O O O O O O O O O O q O O O O v O O O O O O     5.5.5.5.5.5.5.5.5.5.5.5.  O O O O O O O O O O O O O O O 4 O O O O O O O O O O ",
"O O O O O O $ @ O O O O O O O O O O O O O O O   5.5.5.5.5.5.5.5.5.5.5.5.5.  O O O O O O O O O O O A O O O O O O O O O O O O O O ",
"O O O O O O O $ O O O O O O O O O O O O O O O   5.        5.5.5.        5.    O O O O O O O O O O | O O O O O O O O O O O O O O ",
"O O O O O O @ O 6 O O O O O O O O O O O O O     5.5.    5.5.5.5.5.    5.5.5.  O O O O O O O O O O { -.O O O O O O O O O O O O O ",
"O O O O O @ $ $ O O O O O O O O O O O O O O   5.5.5.5.5.5.5.5.5.5.5.5.5.5.5.  O O O O O O O O O O O.[ O O O O O O O O O O O O O ",
"O O O O O O : % *.M T O O O O O O O O O O O     5.5.5.5.5.5.5.5.5.5.5.5.5.5.  O O O O O O O O O } ..> ; @ @ O O O O O O O O O O ",
"O O O O @ @ O % 6 h N O O O O O O O O O O O O   5.5.5.5.          5.5.5.5.5.  O O O O O O O O O O.7 ; O O O O O O O O O O O O O ",
"O O O O @ O /  .+.9 p O O O O O O O O O O O O       5.5.5.5.5.5.5.5.5.5.5.  O O O O O O O O O O 6 * @ O O O O O O O O O O O O O ",
"O O O O O O 8 ..- ' O O O O O O O O O O O O O O O       5.5.5.5.5.5.5.5.    O O O O O O O O ) 6 O @ @ O O O O O O O O O O O O O ",
"O O O O @ # % _ | P O O O O O O O O O O O O O O O O O                   O O O O O O O O O O O O O       O O O O O O O O O O O O ",
"O O O O = 7 @ % ` %.:.O O       O O O O O O O O O O O O       5.    O O O O O O O O O O O O O O     6.    O O O O O O O O O O O ",
"O O O O O $ O i @.D ` O O   6.  O O O O O O O               5.5.5.                O O O O O O O   6.6.6.  O O O O O O O O O O O ",
"O O O O O O O O 2 2 ] O O   6.6.    O O O O     6.6.6.6.6.  5.5.5.  6.6.6.6.6.6.    O O O O O     6.6.6.  O O O O O O O O O O O ",
"O O O O O O O O O O a O O   6.6.6.          6.6.6.6.6.6.6.  5.5.5.  6.6.6.6.6.6.6.              6.6.6.6.                O O O O ",
"O O O O O O O O O O O O O   6.6.6.6.6.6.6.6.6.6.6.6.6.6.6.  5.5.5.  6.6.6.6.6.6.6.6.6.6.6.6.6.6.6.6.6.6.  5.5.5.5.5.5.    O O O ",
"O O O O                     6.6.6.6.6.6.6.6.6.6.6.6.6.6.6.        6.6.6.6.6.6.6.6.6.6.6.6.6.6.6.6.6.6.    5.5.5.5.5.5.5.  O O O ",
"O O O O   5.5.5.5.5.5.5.5.  6.6.6.6.6.6.6.6.6.6.6.6.6.6.6.6.6.  6.6.6.6.6.6.6.6.6.6.6.6.6.6.6.6.6.6.6.                    O O O ",
"O O O   5.5.5.5.5.5.5.5.5.5.  6.6.6.6.6.6.6.6.6.6.6.6.6.6.6.6.6.6.6.6.6.6.6.6.6.6.6.6.6.6.6.6.6.6.6.6.  O O O O O O O O O O O O ",
"O O O                         6.6.6.6.6.6.6.6.6.6.6.6.6.6.6.K K K 6.6.6.6.6.6.6.6.6.6.6.6.6.6.6.6.6.6.  O O O O O O O O O O O O ",
"O O O O O O @ O O O O O O O   6.6.6.6.6.6.6.6.6.6.6.6.6.6.6.K K K 6.6.6.6.6.6.6.6.6.6.6.6.6.6.6.6.6.6.  O O O O O O O O @ O O O ",
"O O O O O O @ O O O O O O     6.6.6.6.6.6.6.6.6.6.6.6.K K K K K K K K K 6.6.6.6.6.6.6.6.6.6.6.6.6.6.6.  O O O O O O O O O O O O ",
"O O O O O @ $ O O O O O O   6.6.6.6.6.6.      6.6.6.6.K K K K K K K K K 6.6.6.  6.6.6.6.6.6.6.6.6.6.6.  O O O O O O O O O O O O ",
"O O O O O @ O O O O O O O   6.6.6.6.      O   6.6.6.6.6.6.6.K K K 6.6.6.6.6.6.      6.6.6.6.6.6.6.6.6.  O O O O O O O O O O O O ",
"O O O O O O $ O O O O O O   6.6.6.    O O O   6.6.6.6.6.6.6.K K K 6.6.6.6.6.6.  O       6.6.6.6.6.6.6.  O O O O O O O O O @ O O ",
"O O O O O $ ( O O O O O O   6.6.  O O O O O   6.6.6.6.6.6.6.K K K 6.6.6.6.6.6.  O O O     6.6.6.6.6.    O O O O O O O O O O O O ",
"O O O O O = 3 O O O O O     6.    O O O O O     6.6.6.6.6.6.K K K 6.6.6.6.6.  O O O O O   6.6.6.6.6.  O O O O O O O O O O O O + ",
"O O O O + + O O O O O O         O O O O O O t   6.6.6.6.6.6.K K K 6.6.6.6.6.  O O O O O O   6.6.6.    O O O O O O O O O O O O O ",
"O O O O O O O O O O O O O O O O O O O O O O O   6.6.6.6.6.6.6.6.6.6.6.6.6.6.  ^ O O O O ~           O O O O O O O O O O O O O O ",
"O O O O O O O O O O O O O O O O O O O O O O O   6.6.6.6.6.6.6.6.6.6.6.6.6.6.  m O O O O J O O O O O O O O O O O O O O O O O O O ",
"O O O O O O % % O O O O O O O O O O O O O O O   6.6.6.6.6.6.6.6.6.6.6.6.6.6.  O O O O O O O O O B [ O O O O O O O O O O O O O O ",
"O O O O O O @ > O O O O O O O O O O O O O O O   6.6.6.6.6.6.6.6.6.6.6.6.6.6.  O O O O O O O O O O O O O O O O O O O O O O O O O ",
"O O O O O @ = o.O O O O O O O O O O O O O O     6.6.6.6.6.6.6.6.6.6.6.6.6.6.  O O O O O O O O O O O O O O O O O O O O O O O O O ",
"O O O O O O @ 7 % O O O O O O O O O O O O O   6.6.6.6.6.6.6.6.6.6.6.6.6.6.6.  O O O O O O O O O O O O O O O O O O O O O O O O O ",
"O O O O O O O O O O O O O O O O #.4.;.V X.  6.6.6.6.6.6.6.6.6.6.6.6.6.6.6.6.6.  O O O O O O O O O O O O O O O O O O O O O O O O ",
"O O O O O O O O O O O O O O O O N >.Z $.:.  6.6.6.6.6.6.6.6.6.6.6.6.6.6.6.6.6.  O O O O O O O O O O O O O O z O O < # @ O O O O ",
"O O O O O O O O O O O O O O O O w p  .> >   6.6.6.6.6.6.6.6.6.6.6.6.6.6.6.6.6.6.  O O O O O O O O O O O O O O O O O o . O O O O ",
"O O O O O O O O O O O O O O O O O O &.d O.  6.6.6.6.6.6.6.  6.6.6.6.6.6.6.6.6.6.  O O O O O O O O O O O O O O O O O O O @ O O O ",
"O O O O O O O O O O O O O O O O O O 1.@.  6.6.6.6.  6.6.6.  6.6.6.6.6.6.    6.6.    O O O O O O O O O O O O O O O O O O O @ O O ",
"O O O O O O O O O O O O O O O O O G j N   6.6.6.6.  6.6.6.  6.6.6.6.6.6.6.  6.6.6.    O O O O O O O O O O O O O O O O ; @ @ @ O ",
"O O O O O O O O O O O O O O O O O Y g     6.6.6.6.  6.6.6.  6.6.6.6.  6.6.    6.6.6.    O O O O O O O O O O O O O O O % & @ + O ",
"O O O O O O O O O O O O O O O O O S 0   6.6.6.6.    6.6.6.  6.6.6.6.  6.6.6.  6.6.6.6.6.  O O O O O e u :.O O O O O O & O O O O ",
"O O O O O O O O O O O O O O O O F c O   6.6.6.6.  6.6.6.6.  6.6.6.6.  6.6.6.6.  6.6.6.6.  O O O O O O O r =.O O O O # + O O O O ",
"O O O O O O O O O O O O O O O O s O   6.6.6.6.6.  6.6.6.  6.6.6.6.6.  6.6.6.6.6.  6.6.6.6.    O O O O O O 1 O O O O + O O O O O ",
"O O O O O O O O O O O O O O O O O O   6.6.6.6.    6.6.6.  6.6.6.6.6.    6.6.6.6.6.  6.6.6.6.    O O O O O O O O O O O O O O O O ",
"O O O O O O O O O O O O O O O O O     6.6.6.    6.6.6.6.  6.6.6.6.6.6.    6.6.6.6.6.  6.6.6.6.6.    O O O O O O O O O O O O O O ",
"O O O O O O O O O O O O O O O O O   6.6.6.6.  6.6.6.6.6.  6.6.6.6.6.6.6.    6.6.6.6.    6.6.6.6.6.  O O O O O O O O O O O O O O ",
"O O O O O O O O O O O O O O O O     6.6.6.  6.6.6.6.6.6.                                                O O O O O O O O O O O O ",
"O O O O O O O O O O O O @ O O     6.6.                      O O O O O O O O O O O O O O O O O O O O     O O O O O O O O O O O O ",
"O O O O O O O O O O O O O O O O       O O O O O O O O O O O O O O O O O O O O O O O O O O O O O O O O O O O O O O O O O O O O O ",
"O O O O O O O O O O O O O O O O O O O O O O O O O O O O O O O O O O O O O O O O O O O O O O O O O O O O O O O O O O O O O O O O ",
"O O O O O O O O O O O O O O O O O O O O O O O O O O O O O O O O O O O O O O O O O O O O O O O O O O O O O O O O O O O O O O O O "
};
