/* XPM */
static char *result[] = {
/* columns rows colors chars-per-pixel */
"64 64 74 1 ",
"  c black",
". c #635A3D",
"X c #6E6239",
"o c #7A6A34",
"O c #464646",
"+ c #555345",
"@ c #625F44",
"# c #636045",
"$ c #6F6B44",
"% c #7A7543",
"& c #8E772E",
"* c #977D2A",
"= c #9C7E2A",
"- c #847031",
"; c #847E43",
": c #BB951E",
"> c #9F8227",
", c #9F8229",
"< c #A68726",
"1 c #AD8C23",
"2 c #A18529",
"3 c #B48F21",
"4 c #B39121",
"5 c #B99521",
"6 c #ADA33F",
"7 c #B4A93F",
"8 c #BAAE3F",
"9 c #BEB33F",
"0 c #C39A1C",
"q c #C99E19",
"w c #CBA119",
"e c #D3A516",
"r c #D7A814",
"t c #DCAA12",
"y c #D0A519",
"u c #ECB50D",
"i c #F2BA0C",
"p c #F8BE09",
"a c #E4B010",
"s c #C3B73F",
"d c #C5BA3E",
"f c #CBBE3E",
"g c #FFC20E",
"h c #CEC03E",
"j c #D3C53E",
"k c #D6C83D",
"l c #DBCC3D",
"z c #DFD03D",
"x c #E3D33D",
"c c #E8D73C",
"v c #E6D83D",
"b c #ECDC3C",
"n c #EEE13B",
"m c #F4E33C",
"M c #F8E73B",
"N c #FCEB3B",
"B c #8E8742",
"V c #8F8843",
"C c #978E42",
"Z c #988F41",
"A c #979042",
"S c #9E9541",
"D c #A09741",
"F c #A69D40",
"G c #ADA340",
"H c #B2A740",
"J c #B4A940",
"K c #B9AD40",
"L c #BEB240",
"P c #C2B540",
"I c #C6B940",
"U c #C9BA40",
"Y c #FFA3B1",
"T c white",
/* pixels */
"OOOOOOOOOOOOOOOOOOOOOOOOOOOOOOOOOOOOOOOOOOOOOOOOOOOOOOOOOOOOOOOO",
"OOOOOOOOOOOOOOOOOOOOOOOOOOOO     OOOOOOOOOOOOOOOOOOOOOOOOOOOOOOO",
"OOOOOOOO#OOOOOOOOOOOOOOOOOO  TTT  OOOOOOOOOOOOOOOO%OOOOOOOOOOOOO",
"OOOOO+OO#OOOOOOOOOOOOOOOOO  TTTTT OOOOOOOOOOOOO#O##OOOOOOOOOOOOO",
"OOOO+@+O@%%$+XOOOO@@#@@+OO TTTTTTT OOOOOOOOOOO$##O%SSV$oOOOOOOOO",
"OOOO+%$BSGGJ*OO.OOOOOOO+O  TTTgTTT OOOOOOOO.#$#FVfjj9L1OOOOOOOOO",
"OOO++$%HKK,1OOOO+O@%%$+@O TTTgggTT  OO+OOOOO+.B#Gdjhq:OOOOOOOOOO",
"OOOO+;FLFSOOOOOOOOBB%B%$O TTTTgTTTT O+OOOOOOOO@skcLFOOOOOOOOOOOO",
"OOOOOBGLBKOOOOOOOOBB%%OOO TTTTgTTTT  +OOOOOOOOPsxGKfOOOOOOOOOOOO",
"OOO+@%CDGKPOOOOOOH@@%%%@$ TTTTTTTTTT #+OOOOOOS7hUll9IOOOOOO+OOOO",
"OOO%B$oqPfsOOOOOO;%V-&B$+ TTTTTTTTTT $COOOOOOvzC5rPhvOOOOOOOOOOO",
"OOO$-OOO51fOOOOOOS2&OOo-          TT O;OOOOOOjw:OOatxOOOOOOOOOOO",
"OOOOOOOOOO0sOOOOD4OOOOOO  YYYYYYY    O1KOOOOcyOOOOOO0IOOOOOOOOOO",
"OOOOOOOOOOO:OOOOtOOOOOO  YYYYYYYYYYYY O2OOOOiOOOOOOOO-OOOOOOOOOO",
"OOOOOO#+OOOOOOOOOOOO#%O YYYYYYYYYYYYY OOOOOOOOOOfdOOOOOOOOOOOOOO",
"OOOOOOO@OOOOOOOOOOOO$;O Y    YYY    Y  OOOOOOOOOGSOOOOOOOOOOOOOO",
"OOOOOO+O;OOOOOOOOOO7B+  YY  YYYYY  YYY OOOOOOOOHdDJOOOOOOOOOOOOO",
"OOOOO+@@OOOOOOOOOOOAB; YYYYYYYYYYYYYYY OOOOOOOOjkFSOOOOOOOOOOOOO",
"OOOOOO%@7skjfar9sxf77B  YYYYYYYYYYYYYY DhywmnzzzSF%%++OOOOOOOOOO",
"OOOO++O#;9sGwOOtkxUsS%% YYYY     YYYYY heOOahhfJ6;%OOOOOOOOOOOOO",
"OOOO+OBFG;45OOOOrwj6sJd   YYYYYYYYYYY *0OOOOy2LS;$+OOOOOOOOOOOOO",
"OOOOOO;F$ZOOOOOOOOC6ZSGfO   YYYYYYYY  OOOOOOOOVBO++OOOOOOOOOOOOO",
"OOOO+@#VShOOOOOOOOLSPGKBOOO         CBOOOOOOOOC$%   OOOOOOOOOOOO",
"OOOO$;+@ZGKOO   OB+;$SBhzOOO   Y  %BFDBOOOOOO;2$  T  OOOOOOOOOOO",
"OOOOO#O1GUAOO T O%%%,,G       YYY        OOOOS;+ TTT OOOOOOOOOOO",
"OOOOOOOO**AOO TT  X*OO  TTTTT YYY TTTTTT  OOOO+  TTT OOOOOOOOOOO",
"OOOOOOOOOO4KO TTT     TTTTTTT YYY TTTTTTT       TTTT        OOOO",
"OOOOOOOOOOO,O TTTTTTTTTTTTTTT YYY TTTTTTTTTTTTTTTTTT YYYYYY  OOO",
"OOOO          TTTTTTTTTTTTTTT    TTTTTTTTTTTTTTTTTT  YYYYYYY OOO",
"OOOO YYYYYYYY TTTTTTTTTTTTTTTTT TTTTTTTTTTTTTTTTTTT          OOO",
"OOO YYYYYYYYYY TTTTTTTTTTTTTTTTTTTTTTTTTTTTTTTTTTTT OOOOOOOOOOOO",
"OOO            TTTTTTTTTTTTTTTgggTTTTTTTTTTTTTTTTTT OOOOOOOOOOOO",
"OOOOOO++;#Ikj0 TTTTTTTTTTTTTTTgggTTTTTTTTTTTTTTTTTT %%S,-$@++OOO",
"OOOOOO+%$JhUr  TTTTTTTTTTTTgggggggggTTTTTTTTTTTTTTT %%=OO.$#+OOO",
"OOOOO+#OGsq4O TTTTTT   TTTTgggggggggTTT TTTTTTTTTTT -=OOOOXXOOOO",
"OOOOO+O;CdOOO TTTT   O TTTTTTTgggTTTTTT   TTTTTTTTT OOOOOOOOOOOO",
"OOOOOO#$V%OOO TTT  C;% TTTTTTTgggTTTTTT O   TTTTTTT OOOOOOOOO+OO",
"OOOOO@,A$GPOO TT C+#OO TTTTTTTgggTTTTTT OOO  TTTTT  JOOOOOO;$OOO",
"OOOOO$*oFf9O  T  ;$S>*  TTTTTTgggTTTTT OOOOO TTTTT +BOOOOOO$++O+",
"OOOO++OO:wlO    OPqqOO1 TTTTTTgggTTTTT OOOOOO TTT  ,SOOOOOOC-XOO",
"OOOOOOOOOO:dOOOOC1OOOOO TTTTTTTTTTTTTT NOOOOm     OO&BOOOOG=OOOO",
"OOOOOOOOOOO0OOOOwOOOOOO TTTTTTTTTTTTTT iOOOOgOOOOOOOO0OOOO2OOOOO",
"OOOOOO##OOOOOOOOOOOOGGO TTTTTTTTTTTTTT OOOOOOOOOdSOOOOOOOOOOOOOO",
"OOOOOO+%OOOOOOOOOOOOKIO TTTTTTTTTTTTTT OOOOOOOOO9;OOOOOOOOOOOOOO",
"OOOOO+$D;OOOOOOOOOOLhh  TTTTTTTTTTTTTT OOOOOOOOnkk7OOOOOOOOOOOOO",
"OOOOOO+;#OOOOOOOOOO8JG TTTTTTTTTTTTTTT OOOOOOOOMbldOOOOOOOOOOOOO",
"OOOOOOO#$;AGd0wKGIJsF TTTTTTTTTTTTTTTTT npgMNNMmvkksfff2o@+OOOOO",
"OOOOOOO+OVSF,OO:sKfGK TTTTTTTTTTTTTTTTT pOOpmmmcvckxllqOO&@+OOOO",
"OOOOOOOOO%o$OOOO:4F%% TTTTTTTTTTTTTTTTTT OOOugbmbxjluuOOOOo.OOOO",
"OOOOOOO+$$OOOOOOOOGKF TTTTTTT TTTTTTTTTT OOOOOmlvvcbOOOOOOOO+OOO",
"OOOOOOO$;%OOOOOOOOPG TTTT TTT TTTTTT  TT  OOOOmxbbblOOOOOOOOO+OO",
"OOOOOOO+$OKOOOOOOf9P TTTT TTT TTTTTTT TTT  OOlldlUKzjOOOOOO%+++O",
"OOOOOOO+OBJOOOOOOjK  TTTT TTT TTTT TT  TTT  ODK604KPUOOOOOO@$++O",
"OOOOOOOO+XAOOOOOOf: TTTT  TTT TTTT TTT TTTTT ;XoOO<3LOOOOOO$OOOO",
"OOOOOOOOOO@SOOOOfrO TTTT TTTT TTTT TTTT TTTT OOOOOOO<JOOOO@+OOOO",
"OOOOOOOOOOO<OOOO4O TTTTT TTT TTTTT TTTTT TTTT  OOOOOO*OOOO+OOOOO",
"OOOOOOOOOOOOOOOOOO TTTT  TTT TTTTT  TTTTT TTTT  OOOOOOOOOOOOOOOO",
"OOOOOOOOOOOOOOOOO  TTT  TTTT TTTTTT  TTTTT TTTTT  OOOOOOOOOOOOOO",
"OOOOOOOOOOOOOOOOO TTTT TTTTT TTTTTTT  TTTT  TTTTT OOOOOOOOOOOOOO",
"OOOOOOOOOOOOOOOO  TTT TTTTTT                        OOOOOOOOOOOO",
"OOOOOOOOOOOO+OO  TT           OOOOOOOOOOOOOOOOOOOO  OOOOOOOOOOOO",
"OOOOOOOOOOOOOOOO   OOOOOOOOOOOOOOOOOOOOOOOOOOOOOOOOOOOOOOOOOOOOO",
"OOOOOOOOOOOOOOOOOOOOOOOOOOOOOOOOOOOOOOOOOOOOOOOOOOOOOOOOOOOOOOOO",
"OOOOOOOOOOOOOOOOOOOOOOOOOOOOOOOOOOOOOOOOOOOOOOOOOOOOOOOOOOOOOOOO"
};
