/* XPM */
static char *result[] = {
/* columns rows colors chars-per-pixel */
"64 64 3 1 ",
"  c black",
". c #2C2C2C",
"X c #464646",
/* pixels */
"XXXXXXXXXXXXX    XXXXXXXXXXXXXXXXXXXXXXXXXXXXXXXXXXXXXXXXXXXXXXX",
"XXXXXXXXXXX      XXXXXXX       XXXXXX    ..XXXXXXXXXXXXXXXXXXXXX",
"XXXXXXXXX        XXXXX..       XXXX        .........XXX      XXX",
"XXX....          XXXXX.        ...         .......           XXX",
"XXX...           XXXXX.        ..          ......            XXX",
"XXX...        XX.           XX             .....             XXX",
"XXX...      X....           XX        XXXXXXXXX            XXXXX",
"XXXXXX     ......          XXX        XXXXXX          XXXXXXXXXX",
"XXXXXX       ..           ..                        .XX....XXXXX",
"XXXXXXX      ..                                    ..XX....XXXXX",
"XXXXXXX                                             .XX....XXXXX",
"XXXX....                                            .......XXXXX",
"XXX......                                           .......XXXXX",
"XX      .                                           .......XXXXX",
"X.      .                                                 .XXXXX",
"X.                                                          XXXX",
"X.                                                           XXX",
"X.                                                           XXX",
"X.                                                  XXX      XXX",
"XXXXXX                                               XXX     XXX",
"XXXXXXX                                              XX....XXXXX",
"XXXXXXXX                                            XXX....XXXXX",
"XXXXXXXXX                                           XXX....XXXXX",
"XXXXXX....                                           XX....XXXXX",
"XXXX     .                                           XX....XXXXX",
"XXXX                                                  X....XXXXX",
"XXXX                                                    ...XXXXX",
"XXXX                                                      .XXXXX",
"XXXXX                                                      XXXXX",
"XX.....                                                    XXXXX",
"XX.....                                             .       XXXX",
"XX.....                                             .X      XXXX",
"XX.....                                             .XX      XXX",
"XXX....                                             .XXX      XX",
"XX    X                                              XXX      XX",
"XX    X                                             XXXXX     XX",
"XX    ..                                            XXXXXX    XX",
"XX    ..                                            XXXXXX    XX",
"X     ..                                            XXX....XXXXX",
"X     ..                                               ....XXXXX",
"X     ..X                                              ....XXXXX",
"X       XXX.                                            ...XXXXX",
"X         X.                                             ..XXXXX",
"X                                                          XXXXX",
"X.                                                           XXX",
"XX..                                               .         XXX",
"XX....X                                            ...        XX",
"XXXXXXXXX                                           XXXX      XX",
"XXXXXXXXXX                                          XXXXX     XX",
"XXXXXXXXXX.                                            XX     XX",
"XXXXXXXXXX.                                            XXX    XX",
"XXXXXXXXX..                                            XXX    XX",
"XXXXXXXXX..                                             XX    XX",
"XXXXXXXX...                                             XXXXXXXX",
"XXXXXX                                                   XXXXXXX",
"XXXX              ..                                       XXXXX",
"XXXX                                         ..            XXXXX",
"XXX.                                         X             .XXXX",
"XXX.     ..XXX                               X              XXXX",
"XXX.    ..XXXX          XXXXXXXX         XXXXX              XXXX",
"XXX.....XXXXXX       XXXXXXXXXXX      ..XXXXXX     X        XXXX",
"XXXXXXXXXXXXXX     XXXXXXXXXXXXXX.......XXXXXX    XX        XXXX",
"XXXXXXXXXXXXXX....XXXXXXXXXXXXXXXX......XXXXXXXXXXXXXXXXXXXXXXXX",
"XXXXXXXXXXXXXXXXXXXXXXXXXXXXXXXXXXXXXXXXXXXXXXXXXXXXXXXXXXXXXXXX"
};
