/* XPM */
static char *pixil_frame_0__5_1687018776[] = {
/* columns rows colors chars-per-pixel */
"64 64 3 1 ",
"  c #844344",
". c #81967E",
"X c #CCBB98",
/* pixels */
"          XX           XX             XX             XX         ",
"          XX           XX             XX             XXX        ",
"          XX           XX            XXX             XXX        ",
"          XX          XXXXX         XXXXXXX           XX        ",
"XXXXXXXXXXXXXXXXXXXXXXXXXXXXXXXXXXXXXXXXXXXXXXXXXXXXXXXXXXX     ",
"XXXXXXXXXXXXXXXXXXXXXXXX XXXXXXXXXXXXX   XXXXXXXXXXXXXXXXXXXXXXX",
"    XX          XX           XX               XXX        XXXXXXX",
"    XX          XXX          XXX              XXX            XX ",
"  ......  ..    XXX          XXX              XXX      .     XX ",
"XXXXXXXXXXXX.XXXXXXXXXXXXX  XXXXXXX  XXXXXXXXXXXXX     .     XX ",
"XXXXXXXXXXXX..XXXXXXXXXXXXXXXXXXXXXXXXXXXXXXXX.......... XXXXXX ",
"           XX.XX        XXXXX     XXXX XX     .XXXXXXXXXXXXXXXX ",
"         XXXX.          XX            XXX     .  XXXXXXXXX      ",
"XXXXX. .XXXXX.          XX            XXX            XX         ",
"XXXXXXXXXXX XXX      XXXXXXXX     XXX XXX            XX         ",
"    XXXXXX  XXXXXXXXXXXXXXXXXXXXXXXXXXXXXXXXXXX XXXXXXX         ",
"     XX      XXXXXXXXXX     XXXXXXXXXXXXXXXXXXXXXXXXXXXX        ",
"    XXX          XX              XX           XXXX   XXXXXX XXXX",
"    XXX          XX              XX           XXX     XXXXXXXXXX",
"  XXXXXXXXXXXX   XX              XX   ....... XX         XXXX   ",
"XXXXXXXXXXXXXXXXXXXX        XXXXXXX   .   XXXXXX           XXX  ",
"XXXX      XXXXXXXXXXXXXXXXXXXXXXXXXXXX.XXXXXXXXXXXXXX     XXXX  ",
"    .     XX      XXXXXXXXXXXX   XXXXXXXXXXXXXXXXXXXXXXXXXXXX   ",
"    .    XXX            XX             XX          XXXXXXXXXXXXX",
"    .    XXX            XX             XX           . XX   XXXXX",
"XXXX.XXXXXXXX           ....           XX           . XX        ",
"XXX.XXXXXXXXXXXXXXXXXXXXXXX       XXXXXXXX     XXXX .XXX        ",
"    ..     XXXXXXXXXXXXXXXXXXXXXXXXXXXXXXXXXXXXXXXXXX.XXXXXXX   ",
"    XX.         XX        XXXXXXXXX      XXXXXXXXXXXX.XXXXXXXXXX",
"    XX.        XXX             XX             XX           XXXXX",
"   XXX.        XXX             XX             XX            XX  ",
"XXXXX..XXXXXXXXXX      XXXXXXXXXX            XXX            XX  ",
"XXXXX.XXXXXXXXXXXXXX  XXXXXXXXXXXX....XXXXXXXXXXXXXXXXXX... XX  ",
"          XXX   XXXXXXXXX   XXXXXXXXXXXXXXXXXXXXXXXXXXXXXX.XXXX ",
"XXXXXX    XXX     XXXXX              XX             XX   X.XXXX ",
"XXXXXXXXXXXXX        XXX             XX             XX     .    ",
"X    XXXXXXXXX       XXX            XXX             XX      .   ",
"            XX        XX            XXX        XXXXXXX      .   ",
"            XX        XXX  XXXXXXXX XXX      XXXXXXXXXXX    .   ",
"  XX        XX XXXXXXXXXXX..XXXXXXXXXXXX...XXXXX    XXXXXXXX.XXX",
"XXXXXXXXXXXXXXXXXXXXXXXXXXX.     XXXXXXXXX..XXX        XXXXX.XXX",
"XXXXXXXXXXXXXXXXX  XX      ..    XX          XX             .X  ",
"      XX           XX       .    XX          XX             .X  ",
"      XX           XX      ..    XX         XXX             .X  ",
"XXXXXXXX           XX   XXX.     XXX      XXXXX            X.X  ",
"XXXXXXXXXXXXXXXXXXXXXX XXXX.XX    XX    XXXXXXXX      XXXXXX.X  ",
"      XXXXXXXXXXXXXXXXXXXX ..XXXXXXXX XXXXXX XXXXXXXXXXXXXXXX   ",
"            XXX      XXX    .XXXXXXXXXXXXXX   XXXXXXXXXXX       ",
"X           XXX             ..  XXXXXXX  XX          XXXXX XXXXX",
"XXXXXXXXXXXXXX            ...X..         XX          XXXXXXXXXXX",
"XXXXXXXXXXXXXXXX      .....XXXX.         XX           XX XXXX   ",
"    XX       XXXXXXXXX.XXXXXXXXX.XXXXXXXXXX           XX        ",
"    XX         XXXXXXXXX     XXX.XXXXXXXXXXXXXXXXXXXXXXX        ",
"    XX              XX          .  XX     XXXXXXXXXXXXXX        ",
"    XXX....        XXX          ...XX             XX            ",
"XXXXXXXXXX..XXX   XXX             ...             XX            ",
"XXXXXXXXXXX.XXXXXXXXXXXXXXXXXXXXXXXX.X            XX    XXXXXXXX",
"   XX      .XXXXXXXXXXXXXXXXXXXXXXXXXXXXXX  XXXXXXXX  XXXXXXXXXX",
"   XX       XX  XXX         XX       XXXXXXXXXXXXXXXXXXXXX      ",
"  XXX       XX             XXX           XXXXX  XXXXXXX XX      ",
"  XXX       XX             XXXXXXXXXX       XX          XXXXX   ",
" XXXXXXXXXXXXXXXX    XXXXXXXXXXXXXXXXXXXXXXXXX          XXXXXXXX",
"XXXXXXXXXXXXXXXXXXXXXXXXXXXXXX     XXXXXXXXXXXXXXXXXXXXXXX  XXXX",
"XX          XX  XXXXXX      XX             XX XXXXXXXXXXXX      "
};
